@startuml


state SM_4.2.Signup {
    [*] --> SM_4.2.1.SignupIdle
    SM_4.2.1.SignupIdle --> SM_4.2.2.SentEmail : \
        UC_5.5.1.Set Email address \n\
        UC_5.5.1.1.The Email addres is already registered

    SM_4.2.1.SignupIdle --> SM_4.2.1.SignupIdle : \
        UC_5.5.1.Set Email address \n\
        UC_5.5.1.2.The Email addres is not registered yet

}


@enduml