@startuml

state SM_4.Signin {
    [*] --> SM_4.1.SigninIdle
    SM_4.1.SigninIdle --> SM_4.1.SigninIdle : UC_5.3.Failed
    SM_4.1.SigninIdle --> [*] : UC_5.2.Success / UC_5.1.Signed in
    SM_4.1.SigninIdle --> [*] : UC_5.4.Canceled
    
    SM_4.1.SigninIdle --> SM_4.2.Signup : UC_5.5.Signing up
}


@enduml